<?xml version="1.0" encoding="utf-8"?>
<!-- Generator: Adobe Illustrator 22.1.0, SVG Export Plug-In . SVG Version: 6.00 Build 0)  -->
<svg version="1.1" id="Layer_1" xmlns="http://www.w3.org/2000/svg" xmlns:xlink="http://www.w3.org/1999/xlink" x="0px" y="0px"
	 viewBox="0 0 118.4 126.9" style="enable-background:new 0 0 118.4 126.9;" xml:space="preserve">
<style type="text/css">
	.st0{fill:#42E8E0;}
	.st1{opacity:0.8;fill:url(#SVGID_1_);}
	.st2{fill:url(#SVGID_2_);}
	.st3{fill:#BCBEFF;}
	.st4{fill:#FFFFFF;}
	.st5{fill:#0F054C;}
	.st6{opacity:0.5;fill:url(#SVGID_3_);}
	.st7{opacity:0.5;fill:url(#SVGID_4_);}
	.st8{opacity:0.5;fill:url(#SVGID_5_);}
	.st9{opacity:0.5;fill:url(#SVGID_6_);}
	.st10{opacity:0.5;fill:#42E8E0;}
	.st11{opacity:0.5;fill:url(#SVGID_7_);}
	.st12{opacity:0.5;fill:url(#SVGID_8_);}
	.st13{opacity:0.8;fill:#42E8E0;}
	.st14{opacity:0.5;fill:url(#SVGID_9_);}
	.st15{opacity:0.7;fill:#42E8E0;}
	.st16{fill:url(#SVGID_10_);}
	.st17{fill:url(#SVGID_11_);}
	.st18{opacity:0.6;fill:#0F054C;}
	.st19{fill:url(#SVGID_12_);}
	.st20{fill:url(#SVGID_13_);}
	.st21{fill:#251C72;}
	.st22{fill:url(#SVGID_14_);}
	.st23{fill:url(#SVGID_15_);}
	.st24{fill:url(#SVGID_16_);}
	.st25{fill:url(#SVGID_17_);}
	.st26{fill:url(#SVGID_18_);}
	.st27{fill:url(#SVGID_19_);}
	.st28{fill:url(#SVGID_20_);}
	.st29{fill:url(#SVGID_21_);}
	.st30{fill:url(#SVGID_22_);}
	.st31{fill:url(#SVGID_23_);}
	.st32{fill:url(#SVGID_24_);}
	.st33{fill:url(#SVGID_25_);}
	.st34{fill:#706EC4;}
</style>
<g>
	<g>
		<g>
			<path class="st0" d="M54.2,62.4c-0.3,0-0.7-0.1-1-0.3l-6.3-3.7l0.3-0.5l6.3,3.7c0.4,0.2,0.8,0.3,1.1,0.1c0.3-0.2,0.4-0.5,0.4-1
				v-1.5c0-0.7,0.3-1.2,0.7-1.5c0.5-0.3,1.1-0.2,1.7,0.1l1.3,0.8l-0.3,0.5l-1.3-0.8c-0.4-0.2-0.8-0.3-1.1-0.1
				c-0.3,0.2-0.4,0.5-0.4,1v1.5c0,0.7-0.3,1.2-0.7,1.5C54.7,62.4,54.5,62.4,54.2,62.4z"/>
			<path class="st0" d="M51.8,63.8c-0.3,0-0.7-0.1-1-0.3l-6.3-3.7l0.3-0.5l6.3,3.7c0.4,0.2,0.8,0.3,1.1,0.1c0.3-0.2,0.4-0.5,0.4-1
				v-1.5c0-0.7,0.3-1.2,0.7-1.5c0.5-0.3,1.1-0.2,1.7,0.1l1.3,0.8l-0.3,0.5l-1.3-0.8c-0.4-0.2-0.8-0.3-1.1-0.1
				c-0.3,0.2-0.4,0.5-0.4,1v1.5c0,0.7-0.3,1.2-0.7,1.5C52.2,63.8,52,63.8,51.8,63.8z"/>
			<path class="st0" d="M49.3,65.2c-0.3,0-0.7-0.1-1-0.3L42,61.3l0.3-0.5l6.3,3.7c0.4,0.2,0.8,0.3,1.1,0.1c0.3-0.2,0.4-0.5,0.4-1V62
				c0-0.7,0.3-1.2,0.7-1.5c0.5-0.3,1.1-0.2,1.7,0.1l1.3,0.8L53.5,62l-1.3-0.8c-0.4-0.2-0.8-0.3-1.1-0.1c-0.3,0.2-0.4,0.5-0.4,1v1.5
				c0,0.7-0.3,1.2-0.7,1.5C49.8,65.2,49.5,65.2,49.3,65.2z"/>
			<path class="st0" d="M46.8,66.7c-0.3,0-0.7-0.1-1-0.3l-6.3-3.7l0.3-0.5l6.3,3.7c0.4,0.2,0.8,0.3,1.1,0.1c0.3-0.2,0.4-0.5,0.4-1
				v-1.5c0-0.7,0.3-1.2,0.7-1.5c0.5-0.3,1.1-0.2,1.7,0.1l1.3,0.8L51,63.4l-1.3-0.8c-0.4-0.2-0.8-0.3-1.1-0.1c-0.3,0.2-0.4,0.5-0.4,1
				V65c0,0.7-0.3,1.2-0.7,1.5C47.3,66.6,47.1,66.7,46.8,66.7z"/>
			<path class="st0" d="M44.4,68.1c-0.3,0-0.7-0.1-1-0.3L37,64.1l0.3-0.5l6.3,3.7c0.4,0.2,0.8,0.3,1.1,0.1c0.3-0.2,0.4-0.5,0.4-1
				v-1.5c0-0.7,0.3-1.2,0.7-1.5c0.5-0.3,1.1-0.2,1.7,0.1l1.3,0.8l-0.3,0.5L47.2,64c-0.4-0.2-0.8-0.3-1.1-0.1c-0.3,0.2-0.4,0.5-0.4,1
				v1.5c0,0.7-0.3,1.2-0.7,1.5C44.8,68,44.6,68.1,44.4,68.1z"/>
			<path class="st0" d="M41.9,69.5c-0.3,0-0.7-0.1-1-0.3l-6.3-3.7l0.3-0.5l6.3,3.7c0.4,0.2,0.8,0.3,1.1,0.1c0.3-0.2,0.4-0.5,0.4-1
				v-1.5c0-0.7,0.3-1.2,0.7-1.5c0.5-0.3,1-0.2,1.7,0.1l1.3,0.8l-0.3,0.5l-1.3-0.8c-0.4-0.2-0.8-0.3-1.1-0.1c-0.3,0.2-0.4,0.5-0.4,1
				v1.5c0,0.7-0.3,1.2-0.7,1.5C42.4,69.4,42.2,69.5,41.9,69.5z"/>
			<path class="st0" d="M39.5,70.9c-0.3,0-0.7-0.1-1-0.3L32.1,67l0.3-0.5l6.3,3.7c0.4,0.2,0.8,0.3,1.1,0.1c0.3-0.2,0.4-0.5,0.4-1
				v-1.5c0-0.7,0.3-1.2,0.7-1.5c0.5-0.3,1.1-0.2,1.7,0.1l1.3,0.8l-0.3,0.5l-1.3-0.8c-0.4-0.2-0.8-0.3-1.1-0.1
				c-0.3,0.2-0.4,0.5-0.4,1v1.5c0,0.7-0.3,1.2-0.7,1.5C39.9,70.9,39.7,70.9,39.5,70.9z"/>
			<path class="st0" d="M37,72.3c-0.3,0-0.7-0.1-1-0.3l-6.3-3.7l0.3-0.5l6.3,3.7c0.4,0.2,0.8,0.3,1.1,0.1c0.3-0.2,0.4-0.5,0.4-1
				v-1.5c0-0.7,0.3-1.2,0.7-1.5c0.5-0.3,1.1-0.2,1.7,0.1l1.3,0.8L41.2,69l-1.3-0.8C39.4,68,39,68,38.8,68.1c-0.3,0.2-0.4,0.5-0.4,1
				v1.5c0,0.7-0.3,1.2-0.7,1.5C37.5,72.3,37.2,72.3,37,72.3z"/>
			<path class="st0" d="M34.5,73.7c-0.3,0-0.7-0.1-1-0.3l-6.3-3.7l0.3-0.5l6.3,3.7c0.4,0.2,0.8,0.3,1.1,0.1c0.3-0.2,0.4-0.5,0.4-1
				v-1.5c0-0.7,0.3-1.2,0.7-1.5c0.5-0.3,1.1-0.2,1.7,0.1l1.3,0.8l-0.3,0.5l-1.3-0.8c-0.4-0.2-0.8-0.3-1.1-0.1
				c-0.3,0.2-0.4,0.5-0.4,1v1.5c0,0.7-0.3,1.2-0.7,1.5C35,73.7,34.8,73.7,34.5,73.7z"/>
			<path class="st0" d="M32.1,75.2c-0.3,0-0.7-0.1-1-0.3l-6.3-3.7l0.3-0.5l6.3,3.7c0.4,0.2,0.8,0.3,1.1,0.1c0.3-0.2,0.4-0.5,0.4-1
				V72c0-0.7,0.3-1.2,0.7-1.5c0.5-0.3,1.1-0.2,1.7,0.1l1.3,0.8l-0.3,0.5l-1.3-0.8c-0.4-0.2-0.8-0.3-1.1-0.1c-0.3,0.2-0.4,0.5-0.4,1
				v1.5c0,0.7-0.3,1.2-0.7,1.5C32.5,75.1,32.3,75.2,32.1,75.2z"/>
			<path class="st0" d="M29.6,76.6c-0.3,0-0.7-0.1-1-0.3l-6.3-3.7l0.3-0.5l6.3,3.7c0.4,0.2,0.8,0.3,1.1,0.1c0.3-0.2,0.4-0.5,0.4-1
				v-1.5c0-0.7,0.3-1.2,0.7-1.5c0.5-0.3,1.1-0.2,1.7,0.1l1.3,0.8l-0.3,0.5l-1.3-0.8c-0.4-0.2-0.8-0.3-1.1-0.1
				c-0.3,0.2-0.4,0.5-0.4,1v1.5c0,0.7-0.3,1.2-0.7,1.5C30.1,76.5,29.9,76.6,29.6,76.6z"/>
			<path class="st0" d="M27.2,78c-0.3,0-0.7-0.1-1-0.3L19.8,74l0.3-0.5l6.3,3.7c0.4,0.2,0.8,0.3,1.1,0.1c0.3-0.2,0.4-0.5,0.4-1v-1.5
				c0-0.7,0.3-1.2,0.7-1.5c0.5-0.3,1.1-0.2,1.7,0.1l1.3,0.8l-0.3,0.5L30,73.9c-0.4-0.2-0.8-0.3-1.1-0.1c-0.3,0.2-0.4,0.5-0.4,1v1.5
				c0,0.7-0.3,1.2-0.7,1.5C27.6,77.9,27.4,78,27.2,78z"/>
			<path class="st0" d="M24.7,79.4c-0.3,0-0.7-0.1-1-0.3l-6.3-3.7l0.3-0.5l6.3,3.7c0.4,0.2,0.8,0.3,1.1,0.1c0.3-0.2,0.4-0.5,0.4-1
				v-1.5c0-0.7,0.3-1.2,0.7-1.5c0.5-0.3,1.1-0.2,1.7,0.1l1.3,0.8l-0.3,0.5l-1.3-0.8c-0.4-0.2-0.8-0.3-1.1-0.1
				c-0.3,0.2-0.4,0.5-0.4,1v1.5c0,0.7-0.3,1.2-0.7,1.5C25.2,79.3,24.9,79.4,24.7,79.4z"/>
			<path class="st0" d="M22.2,80.8c-0.3,0-0.7-0.1-1-0.3l-6.3-3.7l0.3-0.5l6.3,3.7c0.4,0.2,0.8,0.3,1.1,0.1c0.3-0.2,0.4-0.5,0.4-1
				v-1.5c0-0.7,0.3-1.2,0.7-1.5c0.5-0.3,1.1-0.2,1.7,0.1l1.3,0.8l-0.3,0.5l-1.3-0.8c-0.4-0.2-0.8-0.3-1.1-0.1
				c-0.3,0.2-0.4,0.5-0.4,1v1.5c0,0.7-0.3,1.2-0.7,1.5C22.7,80.8,22.5,80.8,22.2,80.8z"/>
			<path class="st0" d="M19.8,82.2c-0.3,0-0.7-0.1-1-0.3l-6.3-3.7l0.3-0.5l6.3,3.7c0.4,0.2,0.8,0.3,1.1,0.1c0.3-0.2,0.4-0.5,0.4-1
				V79c0-0.7,0.3-1.2,0.7-1.5c0.5-0.3,1.1-0.2,1.7,0.1l1.3,0.8l-0.3,0.5l-1.3-0.8c-0.4-0.2-0.8-0.3-1.1-0.1c-0.3,0.2-0.4,0.5-0.4,1
				v1.5c0,0.7-0.3,1.2-0.7,1.5C20.2,82.2,20,82.2,19.8,82.2z"/>
			<path class="st0" d="M17.3,83.7c-0.3,0-0.7-0.1-1-0.3L10,79.7l0.3-0.5l6.3,3.7c0.4,0.2,0.8,0.3,1.1,0.1c0.3-0.2,0.4-0.5,0.4-1
				v-1.5c0-0.7,0.3-1.2,0.7-1.5c0.5-0.3,1.1-0.2,1.7,0.1l1.3,0.8l-0.3,0.5l-1.3-0.8c-0.4-0.2-0.8-0.3-1.1-0.1
				c-0.3,0.2-0.4,0.5-0.4,1V82c0,0.7-0.3,1.2-0.7,1.5C17.8,83.6,17.5,83.7,17.3,83.7z"/>
			<path class="st0" d="M14.9,85.1c-0.3,0-0.7-0.1-1-0.3l-6.3-3.7l0.3-0.5l6.3,3.7c0.4,0.2,0.8,0.3,1.1,0.1c0.3-0.2,0.4-0.5,0.4-1
				v-1.5c0-0.7,0.3-1.2,0.7-1.5c0.5-0.3,1.1-0.2,1.7,0.1l1.3,0.8L19,81.8L17.7,81c-0.4-0.2-0.8-0.3-1.1-0.1c-0.3,0.2-0.4,0.5-0.4,1
				v1.5c0,0.7-0.3,1.2-0.7,1.5C15.3,85,15.1,85.1,14.9,85.1z"/>
			<path class="st0" d="M12.4,86.5c-0.3,0-0.7-0.1-1-0.3l-6.3-3.7L5.4,82l6.3,3.7c0.4,0.2,0.8,0.3,1.1,0.1c0.3-0.2,0.4-0.5,0.4-1
				v-1.5c0-0.7,0.3-1.2,0.7-1.5c0.5-0.3,1.1-0.2,1.7,0.1l1.3,0.8l-0.3,0.5l-1.3-0.8c-0.4-0.2-0.8-0.3-1.1-0.1
				c-0.3,0.2-0.4,0.5-0.4,1v1.5c0,0.7-0.3,1.2-0.7,1.5C12.8,86.4,12.6,86.5,12.4,86.5z"/>
			<path class="st0" d="M9.9,87.9c-0.3,0-0.7-0.1-1-0.3l-6.3-3.7l0.3-0.5l6.3,3.7c0.4,0.2,0.8,0.3,1.1,0.1c0.3-0.2,0.4-0.5,0.4-1
				v-1.5c0-0.7,0.3-1.2,0.7-1.5c0.5-0.3,1.1-0.2,1.7,0.1l1.3,0.8l-0.3,0.5l-1.3-0.8c-0.4-0.2-0.8-0.3-1.1-0.1
				c-0.3,0.2-0.4,0.5-0.4,1v1.5c0,0.7-0.3,1.2-0.7,1.5C10.4,87.8,10.2,87.9,9.9,87.9z"/>
			<path class="st0" d="M7.5,89.3c-0.3,0-0.7-0.1-1-0.3l-6.3-3.7l0.3-0.5l6.3,3.7c0.4,0.2,0.8,0.3,1.1,0.1c0.3-0.2,0.4-0.5,0.4-1
				v-1.5c0-0.7,0.3-1.2,0.7-1.5c0.5-0.3,1.1-0.2,1.7,0.1l1.3,0.8L11.6,86l-1.3-0.8C9.9,85,9.5,85,9.2,85.1c-0.3,0.2-0.4,0.5-0.4,1
				v1.5c0,0.7-0.3,1.2-0.7,1.5C7.9,89.3,7.7,89.3,7.5,89.3z"/>
		</g>
		<g>
			<path class="st0" d="M64.3,62.5c-0.2,0-0.5-0.1-0.7-0.2c-0.5-0.3-0.7-0.8-0.7-1.5v-1.5c0-0.5-0.1-0.8-0.4-1
				c-0.3-0.2-0.6-0.1-1.1,0.1l-1.3,0.8l-0.3-0.5l1.3-0.8c0.6-0.4,1.2-0.4,1.7-0.1c0.5,0.3,0.7,0.8,0.7,1.5v1.5c0,0.5,0.1,0.8,0.4,1
				c0.3,0.2,0.6,0.1,1.1-0.1l6.3-3.7l0.3,0.5l-6.3,3.7C65,62.4,64.6,62.5,64.3,62.5z"/>
			<path class="st0" d="M66.8,63.9c-0.2,0-0.5-0.1-0.7-0.2c-0.5-0.3-0.7-0.8-0.7-1.5v-1.5c0-0.5-0.1-0.8-0.4-1
				c-0.3-0.2-0.6-0.1-1.1,0.1l-1.3,0.8l-0.3-0.5l1.3-0.8c0.6-0.4,1.2-0.4,1.7-0.1c0.5,0.3,0.7,0.8,0.7,1.5v1.5c0,0.5,0.1,0.8,0.4,1
				c0.3,0.2,0.6,0.1,1.1-0.1l6.3-3.7l0.3,0.5l-6.3,3.7C67.4,63.8,67.1,63.9,66.8,63.9z"/>
			<path class="st0" d="M69.2,65.4c-0.2,0-0.5-0.1-0.7-0.2c-0.5-0.3-0.7-0.8-0.7-1.5v-1.5c0-0.5-0.1-0.8-0.4-1s-0.6-0.1-1.1,0.1
				l-1.3,0.8l-0.3-0.5l1.3-0.8c0.6-0.4,1.2-0.4,1.7-0.1c0.5,0.3,0.7,0.8,0.7,1.5v1.5c0,0.5,0.1,0.8,0.4,1c0.3,0.2,0.6,0.1,1.1-0.1
				l6.3-3.7l0.3,0.5l-6.3,3.7C69.9,65.3,69.5,65.4,69.2,65.4z"/>
			<path class="st0" d="M71.7,66.8c-0.2,0-0.5-0.1-0.7-0.2c-0.5-0.3-0.7-0.8-0.7-1.5v-1.5c0-0.5-0.1-0.8-0.4-1
				c-0.3-0.2-0.6-0.1-1.1,0.1l-1.3,0.8L67.2,63l1.3-0.8c0.6-0.4,1.2-0.4,1.7-0.1c0.5,0.3,0.7,0.8,0.7,1.5v1.5c0,0.5,0.1,0.8,0.4,1
				c0.3,0.2,0.6,0.1,1.1-0.1l6.3-3.7l0.3,0.5l-6.3,3.7C72.4,66.7,72,66.8,71.7,66.8z"/>
			<path class="st0" d="M74.2,68.2c-0.2,0-0.5-0.1-0.7-0.2c-0.5-0.3-0.7-0.8-0.7-1.5V65c0-0.5-0.1-0.8-0.4-1
				c-0.3-0.2-0.6-0.1-1.1,0.1L70,64.9l-0.3-0.5l1.3-0.8c0.6-0.4,1.2-0.4,1.7-0.1c0.5,0.3,0.7,0.8,0.7,1.5v1.5c0,0.5,0.1,0.8,0.4,1
				c0.3,0.2,0.6,0.1,1.1-0.1l6.3-3.7l0.3,0.5l-6.3,3.7C74.8,68.1,74.5,68.2,74.2,68.2z"/>
			<path class="st0" d="M76.6,69.6c-0.2,0-0.5-0.1-0.7-0.2c-0.5-0.3-0.7-0.8-0.7-1.5v-1.5c0-0.5-0.1-0.8-0.4-1
				c-0.3-0.2-0.6-0.1-1.1,0.1l-1.3,0.8l-0.3-0.5l1.3-0.8c0.6-0.4,1.2-0.4,1.7-0.1c0.5,0.3,0.7,0.8,0.7,1.5v1.5c0,0.5,0.1,0.8,0.4,1
				c0.3,0.2,0.6,0.1,1.1-0.1l6.3-3.7l0.3,0.5l-6.3,3.7C77.3,69.5,76.9,69.6,76.6,69.6z"/>
			<path class="st0" d="M79.1,71c-0.2,0-0.5-0.1-0.7-0.2c-0.5-0.3-0.7-0.8-0.7-1.5v-1.5c0-0.5-0.1-0.8-0.4-1
				c-0.3-0.2-0.6-0.1-1.1,0.1l-1.3,0.8l-0.3-0.5l1.3-0.8c0.6-0.4,1.2-0.4,1.7-0.1c0.5,0.3,0.7,0.8,0.7,1.5v1.5c0,0.5,0.1,0.8,0.4,1
				c0.3,0.2,0.6,0.1,1.1-0.1l6.3-3.7l0.3,0.5l-6.3,3.7C79.7,70.9,79.4,71,79.1,71z"/>
			<path class="st0" d="M81.5,72.4c-0.2,0-0.5-0.1-0.7-0.2c-0.5-0.3-0.7-0.8-0.7-1.5v-1.5c0-0.5-0.1-0.8-0.4-1
				c-0.3-0.2-0.6-0.1-1.1,0.1l-1.3,0.8l-0.3-0.5l1.3-0.8c0.6-0.4,1.2-0.4,1.7-0.1c0.5,0.3,0.7,0.8,0.7,1.5v1.5c0,0.5,0.1,0.8,0.4,1
				c0.3,0.2,0.6,0.1,1.1-0.1l6.3-3.7l0.3,0.5l-6.3,3.7C82.2,72.3,81.9,72.4,81.5,72.4z"/>
			<path class="st0" d="M84,73.9c-0.2,0-0.5-0.1-0.7-0.2c-0.5-0.3-0.7-0.8-0.7-1.5v-1.5c0-0.5-0.1-0.8-0.4-1
				c-0.3-0.2-0.6-0.1-1.1,0.1l-1.3,0.8L79.5,70l1.3-0.8c0.6-0.4,1.2-0.4,1.7-0.1c0.5,0.3,0.7,0.8,0.7,1.5v1.5c0,0.5,0.1,0.8,0.4,1
				c0.3,0.2,0.6,0.1,1.1-0.1l6.3-3.7l0.3,0.5L85,73.6C84.7,73.8,84.3,73.9,84,73.9z"/>
			<path class="st0" d="M86.5,75.3c-0.2,0-0.5-0.1-0.7-0.2c-0.5-0.3-0.7-0.8-0.7-1.5v-1.5c0-0.5-0.1-0.8-0.4-1
				c-0.3-0.2-0.6-0.1-1.1,0.1L82.3,72L82,71.5l1.3-0.8c0.6-0.4,1.2-0.4,1.7-0.1c0.5,0.3,0.7,0.8,0.7,1.5v1.5c0,0.5,0.1,0.8,0.4,1
				c0.3,0.2,0.6,0.1,1.1-0.1l6.3-3.7l0.3,0.5L87.5,75C87.1,75.2,86.8,75.3,86.5,75.3z"/>
			<path class="st0" d="M88.9,76.7c-0.2,0-0.5-0.1-0.7-0.2c-0.5-0.3-0.7-0.8-0.7-1.5v-1.5c0-0.5-0.1-0.8-0.4-1
				c-0.3-0.2-0.6-0.1-1.1,0.1l-1.3,0.8l-0.3-0.5l1.3-0.8c0.6-0.4,1.2-0.4,1.7-0.1c0.5,0.3,0.7,0.8,0.7,1.5V75c0,0.5,0.1,0.8,0.4,1
				c0.3,0.2,0.6,0.1,1.1-0.1l6.3-3.7l0.3,0.5l-6.3,3.7C89.6,76.6,89.2,76.7,88.9,76.7z"/>
			<path class="st0" d="M91.4,78.1c-0.2,0-0.5-0.1-0.7-0.2c-0.5-0.3-0.7-0.8-0.7-1.5v-1.5c0-0.5-0.1-0.8-0.4-1
				c-0.3-0.2-0.6-0.1-1.1,0.1l-1.3,0.8l-0.3-0.5l1.3-0.8c0.6-0.4,1.2-0.4,1.7-0.1c0.5,0.3,0.7,0.8,0.7,1.5v1.5c0,0.5,0.1,0.8,0.4,1
				c0.3,0.2,0.6,0.1,1.1-0.1l6.3-3.7l0.3,0.5l-6.3,3.7C92,78,91.7,78.1,91.4,78.1z"/>
			<path class="st0" d="M93.8,79.5c-0.2,0-0.5-0.1-0.7-0.2c-0.5-0.3-0.7-0.8-0.7-1.5v-1.5c0-0.5-0.1-0.8-0.4-1
				c-0.3-0.2-0.6-0.1-1.1,0.1l-1.3,0.8l-0.3-0.5l1.3-0.8c0.6-0.4,1.2-0.4,1.7-0.1c0.5,0.3,0.7,0.8,0.7,1.5v1.5c0,0.5,0.1,0.8,0.4,1
				c0.3,0.2,0.6,0.1,1.1-0.1l6.3-3.7l0.3,0.5l-6.3,3.7C94.5,79.4,94.2,79.5,93.8,79.5z"/>
			<path class="st0" d="M96.3,80.9c-0.2,0-0.5-0.1-0.7-0.2c-0.5-0.3-0.7-0.8-0.7-1.5v-1.5c0-0.5-0.1-0.8-0.4-1
				c-0.3-0.2-0.6-0.1-1.1,0.1l-1.3,0.8l-0.3-0.5l1.3-0.8c0.6-0.4,1.2-0.4,1.7-0.1c0.5,0.3,0.7,0.8,0.7,1.5v1.5c0,0.5,0.1,0.8,0.4,1
				c0.3,0.2,0.6,0.1,1.1-0.1l6.3-3.7l0.3,0.5l-6.3,3.7C97,80.8,96.6,80.9,96.3,80.9z"/>
			<path class="st0" d="M98.8,82.4c-0.2,0-0.5-0.1-0.7-0.2c-0.5-0.3-0.7-0.8-0.7-1.5v-1.5c0-0.5-0.1-0.8-0.4-1
				c-0.3-0.2-0.6-0.1-1.1,0.1l-1.3,0.8l-0.3-0.5l1.3-0.8c0.6-0.4,1.2-0.4,1.7-0.1c0.5,0.3,0.7,0.8,0.7,1.5v1.5c0,0.5,0.1,0.8,0.4,1
				c0.3,0.2,0.6,0.1,1.1-0.1l6.3-3.7l0.3,0.5L99.8,82C99.4,82.2,99.1,82.4,98.8,82.4z"/>
			<path class="st0" d="M101.2,83.8c-0.2,0-0.5-0.1-0.7-0.2c-0.5-0.3-0.7-0.8-0.7-1.5v-1.5c0-0.5-0.1-0.8-0.4-1
				c-0.3-0.2-0.6-0.1-1.1,0.1l-1.3,0.8L96.8,80l1.3-0.8c0.6-0.4,1.2-0.4,1.7-0.1c0.5,0.3,0.7,0.8,0.7,1.5v1.5c0,0.5,0.1,0.8,0.4,1
				c0.3,0.2,0.6,0.1,1.1-0.1l6.3-3.7l0.3,0.5l-6.3,3.7C101.9,83.7,101.5,83.8,101.2,83.8z"/>
			<path class="st0" d="M103.7,85.2c-0.2,0-0.5-0.1-0.7-0.2c-0.5-0.3-0.7-0.8-0.7-1.5V82c0-0.5-0.1-0.8-0.4-1
				c-0.3-0.2-0.6-0.1-1.1,0.1l-1.3,0.8l-0.3-0.5l1.3-0.8c0.6-0.4,1.2-0.4,1.7-0.1c0.5,0.3,0.7,0.8,0.7,1.5v1.5c0,0.5,0.1,0.8,0.4,1
				c0.3,0.2,0.6,0.1,1.1-0.1l6.3-3.7l0.3,0.5l-6.3,3.7C104.3,85.1,104,85.2,103.7,85.2z"/>
			<path class="st0" d="M106.1,86.6c-0.2,0-0.5-0.1-0.7-0.2c-0.5-0.3-0.7-0.8-0.7-1.5v-1.5c0-0.5-0.1-0.8-0.4-1
				c-0.3-0.2-0.6-0.1-1.1,0.1l-1.3,0.8l-0.3-0.5L103,82c0.6-0.4,1.2-0.4,1.7-0.1c0.5,0.3,0.7,0.8,0.7,1.5v1.5c0,0.5,0.1,0.8,0.4,1
				c0.3,0.2,0.6,0.1,1.1-0.1l6.3-3.7l0.3,0.5l-6.3,3.7C106.8,86.5,106.5,86.6,106.1,86.6z"/>
			<path class="st0" d="M108.6,88c-0.2,0-0.5-0.1-0.7-0.2c-0.5-0.3-0.7-0.8-0.7-1.5v-1.5c0-0.5-0.1-0.8-0.4-1
				c-0.3-0.2-0.6-0.1-1.1,0.1l-1.3,0.8l-0.3-0.5l1.3-0.8c0.6-0.4,1.2-0.4,1.7-0.1c0.5,0.3,0.7,0.8,0.7,1.5v1.5c0,0.5,0.1,0.8,0.4,1
				c0.3,0.2,0.6,0.1,1.1-0.1l6.3-3.7l0.3,0.5l-6.3,3.7C109.3,87.9,108.9,88,108.6,88z"/>
			<path class="st0" d="M111.1,89.4c-0.2,0-0.5-0.1-0.7-0.2c-0.5-0.3-0.7-0.8-0.7-1.5v-1.5c0-0.5-0.1-0.8-0.4-1
				c-0.3-0.2-0.6-0.1-1.1,0.1l-1.3,0.8l-0.3-0.5l1.3-0.8c0.6-0.4,1.2-0.4,1.7-0.1c0.5,0.3,0.7,0.8,0.7,1.5v1.5c0,0.5,0.1,0.8,0.4,1
				c0.3,0.2,0.6,0.1,1.1-0.1l6.3-3.7l0.3,0.5l-6.3,3.7C111.7,89.3,111.4,89.4,111.1,89.4z"/>
		</g>
		<g>
			<g>
				<radialGradient id="SVGID_1_" cx="59.5281" cy="87.9332" r="45.5152" gradientUnits="userSpaceOnUse">
					<stop  offset="0" style="stop-color:#03002D"/>
					<stop  offset="0.1597" style="stop-color:#413F61"/>
					<stop  offset="0.3263" style="stop-color:#7A7890"/>
					<stop  offset="0.4878" style="stop-color:#AAA9B8"/>
					<stop  offset="0.6398" style="stop-color:#CFCED7"/>
					<stop  offset="0.78" style="stop-color:#E9E9ED"/>
					<stop  offset="0.9044" style="stop-color:#F9F9FA"/>
					<stop  offset="1" style="stop-color:#FFFFFF"/>
				</radialGradient>
				<polygon class="st1" points="59.3,126.5 10.7,98.4 59.3,70.4 107.9,98.4 				"/>
				<linearGradient id="SVGID_2_" gradientUnits="userSpaceOnUse" x1="-13.3718" y1="103.2734" x2="111.2368" y2="103.2734">
					<stop  offset="0" style="stop-color:#706EC4"/>
					<stop  offset="2.222079e-02" style="stop-color:#6D6BC2"/>
					<stop  offset="0.2509" style="stop-color:#5651AC"/>
					<stop  offset="0.4865" style="stop-color:#463F9D"/>
					<stop  offset="0.7314" style="stop-color:#3C3494"/>
					<stop  offset="1" style="stop-color:#393091"/>
				</linearGradient>
				<polygon class="st2" points="107.9,86.4 107.9,92 59.3,120.1 10.7,92 10.7,86.4 				"/>
				<polygon class="st3" points="59.3,114.5 10.7,86.4 59.3,58.4 107.9,86.4 				"/>
				<polygon class="st4" points="59.3,113.8 11.2,86.1 10.7,86.4 59.3,114.5 107.9,86.4 107.3,86.1 				"/>
			</g>
			<g>
				<polygon class="st5" points="59.3,108 21.9,86.4 59.3,64.8 96.7,86.4 				"/>
				<g>
					<linearGradient id="SVGID_3_" gradientUnits="userSpaceOnUse" x1="21.8927" y1="86.4352" x2="96.686" y2="86.4352">
						<stop  offset="0" style="stop-color:#42E8E0"/>
						<stop  offset="0.1507" style="stop-color:#43E3E0"/>
						<stop  offset="0.3285" style="stop-color:#45D5DF"/>
						<stop  offset="0.5199" style="stop-color:#49BDDD"/>
						<stop  offset="0.7209" style="stop-color:#4E9CDB"/>
						<stop  offset="0.9274" style="stop-color:#5472D8"/>
						<stop  offset="1" style="stop-color:#5761D7"/>
					</linearGradient>
					<polygon class="st6" points="59.3,108 21.9,86.4 59.3,64.8 96.7,86.4 					"/>
					<g>
						<linearGradient id="SVGID_4_" gradientUnits="userSpaceOnUse" x1="59.2888" y1="72.9174" x2="96.686" y2="72.9174">
							<stop  offset="0" style="stop-color:#42E8E0"/>
							<stop  offset="0.1507" style="stop-color:#43E3E0"/>
							<stop  offset="0.3285" style="stop-color:#45D5DF"/>
							<stop  offset="0.5199" style="stop-color:#49BDDD"/>
							<stop  offset="0.7209" style="stop-color:#4E9CDB"/>
							<stop  offset="0.9274" style="stop-color:#5472D8"/>
							<stop  offset="1" style="stop-color:#5761D7"/>
						</linearGradient>
						<polygon class="st7" points="59.3,59.4 96.7,81 96.7,86.4 59.3,64.8 						"/>
						<linearGradient id="SVGID_5_" gradientUnits="userSpaceOnUse" x1="21.8927" y1="72.9171" x2="59.2899" y2="72.9171">
							<stop  offset="0" style="stop-color:#42E8E0"/>
							<stop  offset="0.1507" style="stop-color:#43E3E0"/>
							<stop  offset="0.3285" style="stop-color:#45D5DF"/>
							<stop  offset="0.5199" style="stop-color:#49BDDD"/>
							<stop  offset="0.7209" style="stop-color:#4E9CDB"/>
							<stop  offset="0.9274" style="stop-color:#5472D8"/>
							<stop  offset="1" style="stop-color:#5761D7"/>
						</linearGradient>
						<polygon class="st8" points="59.3,64.8 21.9,86.4 21.9,81 59.3,59.4 						"/>
						<linearGradient id="SVGID_6_" gradientUnits="userSpaceOnUse" x1="21.8927" y1="80.9906" x2="96.686" y2="80.9906">
							<stop  offset="0" style="stop-color:#42E8E0"/>
							<stop  offset="0.1507" style="stop-color:#43E3E0"/>
							<stop  offset="0.3285" style="stop-color:#45D5DF"/>
							<stop  offset="0.5199" style="stop-color:#49BDDD"/>
							<stop  offset="0.7209" style="stop-color:#4E9CDB"/>
							<stop  offset="0.9274" style="stop-color:#5472D8"/>
							<stop  offset="1" style="stop-color:#5761D7"/>
						</linearGradient>
						<polygon class="st9" points="59.3,102.6 21.9,81 59.3,59.4 96.7,81 						"/>
						<polygon class="st10" points="59.3,89.6 44.3,81 59.3,72.4 74.2,81 						"/>
						<polygon class="st10" points="59.3,73.2 73.5,81.4 74.2,81 59.3,72.4 44.3,81 45,81.4 						"/>
						<linearGradient id="SVGID_7_" gradientUnits="userSpaceOnUse" x1="59.2899" y1="94.5084" x2="96.686" y2="94.5084">
							<stop  offset="0" style="stop-color:#42E8E0"/>
							<stop  offset="0.1507" style="stop-color:#43E3E0"/>
							<stop  offset="0.3285" style="stop-color:#45D5DF"/>
							<stop  offset="0.5199" style="stop-color:#49BDDD"/>
							<stop  offset="0.7209" style="stop-color:#4E9CDB"/>
							<stop  offset="0.9274" style="stop-color:#5472D8"/>
							<stop  offset="1" style="stop-color:#5761D7"/>
						</linearGradient>
						<polygon class="st11" points="59.3,102.6 59.3,108 96.7,86.4 96.7,81 						"/>
					</g>
					<linearGradient id="SVGID_8_" gradientUnits="userSpaceOnUse" x1="21.8927" y1="94.5081" x2="59.2899" y2="94.5081">
						<stop  offset="0" style="stop-color:#42E8E0"/>
						<stop  offset="0.1507" style="stop-color:#43E3E0"/>
						<stop  offset="0.3285" style="stop-color:#45D5DF"/>
						<stop  offset="0.5199" style="stop-color:#49BDDD"/>
						<stop  offset="0.7209" style="stop-color:#4E9CDB"/>
						<stop  offset="0.9274" style="stop-color:#5472D8"/>
						<stop  offset="1" style="stop-color:#5761D7"/>
					</linearGradient>
					<polygon class="st12" points="21.9,81 21.9,86.4 59.3,108 59.3,102.6 					"/>
				</g>
				<polygon class="st13" points="59.3,102 22.4,80.7 21.9,81 59.3,102.6 96.7,81 96.2,80.7 				"/>
			</g>
		</g>
		<g>
			<path class="st0" d="M71.3,126.9l-6.3-3.7c-1.2-0.7-2.1-2.2-2.1-3.6v-1.5c0-1.1-0.8-2.5-1.8-3.1l-1.3-0.8l0.3-0.5l1.3,0.8
				c1.2,0.7,2.1,2.2,2.1,3.6v1.5c0,1.1,0.8,2.5,1.8,3.1l6.3,3.7L71.3,126.9z"/>
			<path class="st0" d="M73.8,125.5l-6.3-3.7c-1.2-0.7-2.1-2.2-2.1-3.6v-1.5c0-1.1-0.8-2.5-1.8-3.1l-1.3-0.8l0.3-0.5l1.3,0.8
				c1.2,0.7,2.1,2.2,2.1,3.6v1.5c0,1.1,0.8,2.5,1.8,3.1l6.3,3.7L73.8,125.5z"/>
			<path class="st0" d="M76.3,124.1l-6.3-3.7c-1.2-0.7-2.1-2.2-2.1-3.6v-1.5c0-1.1-0.8-2.5-1.8-3.1l-1.3-0.8l0.3-0.5l1.3,0.8
				c1.2,0.7,2.1,2.2,2.1,3.6v1.5c0,1.1,0.8,2.5,1.8,3.1l6.3,3.7L76.3,124.1z"/>
			<path class="st0" d="M78.7,122.6l-6.3-3.7c-1.2-0.7-2.1-2.2-2.1-3.6v-1.5c0-1.1-0.8-2.5-1.8-3.1l-1.3-0.8l0.3-0.5l1.3,0.8
				c1.2,0.7,2.1,2.2,2.1,3.6v1.5c0,1.1,0.8,2.5,1.8,3.1l6.3,3.7L78.7,122.6z"/>
			<path class="st0" d="M81.2,121.2l-6.3-3.7c-1.2-0.7-2.1-2.2-2.1-3.6v-1.5c0-1.1-0.8-2.5-1.8-3.1l-1.3-0.8l0.3-0.5l1.3,0.8
				c1.2,0.7,2.1,2.2,2.1,3.6v1.5c0,1.1,0.8,2.5,1.8,3.1l6.3,3.7L81.2,121.2z"/>
			<path class="st0" d="M83.7,119.8l-6.3-3.7c-1.2-0.7-2.1-2.2-2.1-3.6V111c0-1.1-0.8-2.5-1.8-3.1l-1.3-0.8l0.3-0.5l1.3,0.8
				c1.2,0.7,2.1,2.2,2.1,3.6v1.5c0,1.1,0.8,2.5,1.8,3.1l6.3,3.7L83.7,119.8z"/>
			<path class="st0" d="M86.1,118.4l-6.3-3.7c-1.2-0.7-2.1-2.2-2.1-3.6v-1.5c0-1.1-0.8-2.5-1.8-3.1l-1.3-0.8l0.3-0.5l1.3,0.8
				c1.2,0.7,2.1,2.2,2.1,3.6v1.5c0,1.1,0.8,2.5,1.8,3.1l6.3,3.7L86.1,118.4z"/>
			<path class="st0" d="M88.6,117l-6.3-3.7c-1.2-0.7-2.1-2.2-2.1-3.6v-1.5c0-1.1-0.8-2.5-1.8-3.1l-1.3-0.8l0.3-0.5l1.3,0.8
				c1.2,0.7,2.1,2.2,2.1,3.6v1.5c0,1.1,0.8,2.5,1.8,3.1l6.3,3.7L88.6,117z"/>
			<path class="st0" d="M91,115.6l-6.3-3.7c-1.2-0.7-2.1-2.2-2.1-3.6v-1.5c0-1.1-0.8-2.5-1.8-3.1l-1.3-0.8l0.3-0.5l1.3,0.8
				c1.2,0.7,2.1,2.2,2.1,3.6v1.5c0,1.1,0.8,2.5,1.8,3.1l6.3,3.7L91,115.6z"/>
			<path class="st0" d="M93.5,114.1l-6.3-3.7c-1.2-0.7-2.1-2.2-2.1-3.6v-1.5c0-1.1-0.8-2.5-1.8-3.1l-1.3-0.8l0.3-0.5l1.3,0.8
				c1.2,0.7,2.1,2.2,2.1,3.6v1.5c0,1.1,0.8,2.5,1.8,3.1l6.3,3.7L93.5,114.1z"/>
			<path class="st0" d="M96,112.7l-6.3-3.7c-1.2-0.7-2.1-2.2-2.1-3.6v-1.5c0-1.1-0.8-2.5-1.8-3.1l-1.3-0.8l0.3-0.5l1.3,0.8
				c1.2,0.7,2.1,2.2,2.1,3.6v1.5c0,1.1,0.8,2.5,1.8,3.1l6.3,3.7L96,112.7z"/>
			<path class="st0" d="M98.4,111.3l-6.3-3.7c-1.2-0.7-2.1-2.2-2.1-3.6v-1.5c0-1.1-0.8-2.5-1.8-3.1l-1.3-0.8l0.3-0.5l1.3,0.8
				c1.2,0.7,2.1,2.2,2.1,3.6v1.5c0,1.1,0.8,2.5,1.8,3.1l6.3,3.7L98.4,111.3z"/>
			<path class="st0" d="M100.9,109.9l-6.3-3.7c-1.2-0.7-2.1-2.2-2.1-3.6v-1.5c0-1.1-0.8-2.5-1.8-3.1l-1.3-0.8l0.3-0.5l1.3,0.8
				c1.2,0.7,2.1,2.2,2.1,3.6v1.5c0,1.1,0.8,2.5,1.8,3.1l6.3,3.7L100.9,109.9z"/>
			<path class="st0" d="M103.3,108.5l-6.3-3.7c-1.2-0.7-2.1-2.2-2.1-3.6v-1.5c0-1.1-0.8-2.5-1.8-3.1l-1.3-0.8l0.3-0.5l1.3,0.8
				c1.2,0.7,2.1,2.2,2.1,3.6v1.5c0,1.1,0.8,2.5,1.8,3.1l6.3,3.7L103.3,108.5z"/>
			<path class="st0" d="M105.8,107l-6.3-3.7c-1.2-0.7-2.1-2.2-2.1-3.6v-1.5c0-1.1-0.8-2.5-1.8-3.1l-1.3-0.8l0.3-0.5l1.3,0.8
				c1.2,0.7,2.1,2.2,2.1,3.6v1.5c0,1.1,0.8,2.5,1.8,3.1l6.3,3.7L105.8,107z"/>
			<path class="st0" d="M108.3,105.6l-6.3-3.7c-1.2-0.7-2.1-2.2-2.1-3.6v-1.5c0-1.1-0.8-2.5-1.8-3.1L96.8,93l0.3-0.5l1.3,0.8
				c1.2,0.7,2.1,2.2,2.1,3.6v1.5c0,1.1,0.8,2.5,1.8,3.1l6.3,3.7L108.3,105.6z"/>
			<path class="st0" d="M110.7,104.2l-6.3-3.7c-1.2-0.7-2.1-2.2-2.1-3.6v-1.5c0-1.1-0.8-2.5-1.8-3.1l-1.3-0.8l0.3-0.5l1.3,0.8
				c1.2,0.7,2.1,2.2,2.1,3.6V97c0,1.1,0.8,2.5,1.8,3.1l6.3,3.7L110.7,104.2z"/>
			<path class="st0" d="M113.2,102.8l-6.3-3.7c-1.2-0.7-2.1-2.2-2.1-3.6V94c0-1.1-0.8-2.5-1.8-3.1l-1.3-0.8l0.3-0.5l1.3,0.8
				c1.2,0.7,2.1,2.2,2.1,3.6v1.5c0,1.1,0.8,2.5,1.8,3.1l6.3,3.7L113.2,102.8z"/>
			<path class="st0" d="M115.6,101.4l-6.3-3.7c-1.2-0.7-2.1-2.2-2.1-3.6v-1.5c0-1.1-0.8-2.5-1.8-3.1l-1.3-0.8l0.3-0.5l1.3,0.8
				c1.2,0.7,2.1,2.2,2.1,3.6v1.5c0,1.1,0.8,2.5,1.8,3.1l6.3,3.7L115.6,101.4z"/>
			<path class="st0" d="M118.1,100l-6.3-3.7c-1.2-0.7-2.1-2.2-2.1-3.6v-1.5c0-1.1-0.8-2.5-1.8-3.1l-1.3-0.8l0.3-0.5l1.3,0.8
				c1.2,0.7,2.1,2.2,2.1,3.6v1.5c0,1.1,0.8,2.5,1.8,3.1l6.3,3.7L118.1,100z"/>
		</g>
		<g>
			<path class="st0" d="M47.1,126.9l-0.3-0.5l6.3-3.7c1-0.6,1.8-2,1.8-3.1v-1.5c0-1.3,0.9-2.9,2.1-3.6l1.3-0.8l0.3,0.5l-1.3,0.8
				c-1,0.6-1.8,2-1.8,3.1v1.5c0,1.3-0.9,2.9-2.1,3.6L47.1,126.9z"/>
			<path class="st0" d="M44.6,125.5l-0.3-0.5l6.3-3.7c1-0.6,1.8-2,1.8-3.1v-1.5c0-1.3,0.9-2.9,2.1-3.6l1.3-0.8l0.3,0.5l-1.3,0.8
				c-1,0.6-1.8,1.9-1.8,3.1v1.5c0,1.3-0.9,2.9-2.1,3.6L44.6,125.5z"/>
			<path class="st0" d="M42.1,124.1l-0.3-0.5l6.3-3.7c1-0.6,1.8-2,1.8-3.1v-1.5c0-1.3,0.9-2.9,2.1-3.6l1.3-0.8l0.3,0.5l-1.3,0.8
				c-1,0.6-1.8,2-1.8,3.1v1.5c0,1.3-0.9,2.9-2.1,3.6L42.1,124.1z"/>
			<path class="st0" d="M39.7,122.6l-0.3-0.5l6.3-3.7c1-0.6,1.8-2,1.8-3.1v-1.5c0-1.3,0.9-2.9,2.1-3.6l1.3-0.8l0.3,0.5l-1.3,0.8
				c-1,0.6-1.8,2-1.8,3.1v1.5c0,1.3-0.9,2.9-2.1,3.6L39.7,122.6z"/>
			<path class="st0" d="M37.2,121.2l-0.3-0.5l6.3-3.7c1-0.6,1.8-1.9,1.8-3.1v-1.5c0-1.3,0.9-2.9,2.1-3.6l1.3-0.8l0.3,0.5l-1.3,0.8
				c-1,0.6-1.8,2-1.8,3.1v1.5c0,1.3-0.9,2.9-2.1,3.6L37.2,121.2z"/>
			<path class="st0" d="M34.8,119.8l-0.3-0.5l6.3-3.7c1-0.6,1.8-2,1.8-3.1V111c0-1.3,0.9-2.9,2.1-3.6l1.3-0.8l0.3,0.5l-1.3,0.8
				c-1,0.6-1.8,2-1.8,3.1v1.5c0,1.3-0.9,2.9-2.1,3.6L34.8,119.8z"/>
			<path class="st0" d="M32.3,118.4l-0.3-0.5l6.3-3.7c1-0.6,1.8-2,1.8-3.1v-1.5c0-1.3,0.9-2.9,2.1-3.6l1.3-0.8l0.3,0.5l-1.3,0.8
				c-1,0.6-1.8,1.9-1.8,3.1v1.5c0,1.3-0.9,2.9-2.1,3.6L32.3,118.4z"/>
			<path class="st0" d="M29.8,117l-0.3-0.5l6.3-3.7c1-0.6,1.8-2,1.8-3.1v-1.5c0-1.3,0.9-2.9,2.1-3.6l1.3-0.8l0.3,0.5l-1.3,0.8
				c-1,0.6-1.8,1.9-1.8,3.1v1.5c0,1.3-0.9,2.9-2.1,3.6L29.8,117z"/>
			<path class="st0" d="M27.4,115.6l-0.3-0.5l6.3-3.7c1-0.6,1.8-2,1.8-3.1v-1.5c0-1.3,0.9-2.9,2.1-3.6l1.3-0.8l0.3,0.5l-1.3,0.8
				c-1,0.6-1.8,2-1.8,3.1v1.5c0,1.3-0.9,2.9-2.1,3.6L27.4,115.6z"/>
			<path class="st0" d="M24.9,114.1l-0.3-0.5l6.3-3.7c1-0.6,1.8-1.9,1.8-3.1v-1.5c0-1.3,0.9-2.9,2.1-3.6l1.3-0.8l0.3,0.5l-1.3,0.8
				c-1,0.6-1.8,2-1.8,3.1v1.5c0,1.3-0.9,2.9-2.1,3.6L24.9,114.1z"/>
			<path class="st0" d="M22.5,112.7l-0.3-0.5l6.3-3.7c1-0.6,1.8-2,1.8-3.1v-1.5c0-1.3,0.9-2.9,2.1-3.6l1.3-0.8l0.3,0.5l-1.3,0.8
				c-1,0.6-1.8,2-1.8,3.1v1.5c0,1.3-0.9,2.9-2.1,3.6L22.5,112.7z"/>
			<path class="st0" d="M20,111.3l-0.3-0.5l6.3-3.7c1-0.6,1.8-2,1.8-3.1v-1.5c0-1.3,0.9-2.9,2.1-3.6l1.3-0.8l0.3,0.5l-1.3,0.8
				c-1,0.6-1.8,1.9-1.8,3.1v1.5c0,1.3-0.9,2.9-2.1,3.6L20,111.3z"/>
			<path class="st0" d="M17.5,109.9l-0.3-0.5l6.3-3.7c1-0.6,1.8-2,1.8-3.1v-1.5c0-1.3,0.9-2.9,2.1-3.6l1.3-0.8l0.3,0.5L27.7,98
				c-1,0.6-1.8,2-1.8,3.1v1.5c0,1.3-0.9,2.9-2.1,3.6L17.5,109.9z"/>
			<path class="st0" d="M15.1,108.5l-0.3-0.5l6.3-3.7c1-0.6,1.8-2,1.8-3.1v-1.5c0-1.3,0.9-2.9,2.1-3.6l1.3-0.8l0.3,0.5l-1.3,0.8
				c-1,0.6-1.8,2-1.8,3.1v1.5c0,1.3-0.9,2.9-2.1,3.6L15.1,108.5z"/>
			<path class="st0" d="M12.6,107l-0.3-0.5l6.3-3.7c1-0.6,1.8-1.9,1.8-3.1v-1.5c0-1.3,0.9-2.9,2.1-3.6l1.3-0.8l0.3,0.5l-1.3,0.8
				c-1,0.6-1.8,2-1.8,3.1v1.5c0,1.3-0.9,2.9-2.1,3.6L12.6,107z"/>
			<path class="st0" d="M10.1,105.6l-0.3-0.5l6.3-3.7c1-0.6,1.8-1.9,1.8-3.1v-1.5c0-1.3,0.9-2.9,2.1-3.6l1.3-0.8l0.3,0.5l-1.3,0.8
				c-1,0.6-1.8,2-1.8,3.1v1.5c0,1.3-0.9,2.9-2.1,3.6L10.1,105.6z"/>
			<path class="st0" d="M7.7,104.2l-0.3-0.5l6.3-3.7c1-0.6,1.8-2,1.8-3.1v-1.5c0-1.3,0.9-2.9,2.1-3.6l1.3-0.8l0.3,0.5l-1.3,0.8
				c-1,0.6-1.8,1.9-1.8,3.1V97c0,1.3-0.9,2.9-2.1,3.6L7.7,104.2z"/>
			<path class="st0" d="M5.2,102.8l-0.3-0.5l6.3-3.7c1-0.6,1.8-2,1.8-3.1V94c0-1.3,0.9-2.9,2.1-3.6l1.3-0.8l0.3,0.5L15.4,91
				c-1,0.6-1.8,2-1.8,3.1v1.5c0,1.3-0.9,2.9-2.1,3.6L5.2,102.8z"/>
			<path class="st0" d="M2.8,101.4l-0.3-0.5l6.3-3.7c1-0.6,1.8-2,1.8-3.1v-1.5c0-1.3,0.9-2.9,2.1-3.6l1.3-0.8l0.3,0.5l-1.3,0.8
				c-1,0.6-1.8,2-1.8,3.1v1.5c0,1.3-0.9,2.9-2.1,3.6L2.8,101.4z"/>
			<path class="st0" d="M0.3,100L0,99.4l6.3-3.7c1-0.6,1.8-2,1.8-3.1v-1.5c0-1.3,0.9-2.9,2.1-3.6l1.3-0.8l0.3,0.5l-1.3,0.8
				c-1,0.6-1.8,2-1.8,3.1v1.5c0,1.3-0.9,2.9-2.1,3.6L0.3,100z"/>
		</g>
	</g>
	<linearGradient id="SVGID_9_" gradientUnits="userSpaceOnUse" x1="21.8927" y1="82.9632" x2="96.686" y2="82.9632">
		<stop  offset="0" style="stop-color:#42E8E0"/>
		<stop  offset="0.1507" style="stop-color:#43E3E0"/>
		<stop  offset="0.3285" style="stop-color:#45D5DF"/>
		<stop  offset="0.5199" style="stop-color:#49BDDD"/>
		<stop  offset="0.7209" style="stop-color:#4E9CDB"/>
		<stop  offset="0.9274" style="stop-color:#5472D8"/>
		<stop  offset="1" style="stop-color:#5761D7"/>
	</linearGradient>
	<polygon class="st14" points="59.3,102.6 21.9,81 21.9,64.2 59.1,84.9 96.7,63.3 96.7,81 	"/>
	<path class="st15" d="M96.7,67.6v-4.2L59.1,84.9L21.9,64.2v3.5l35,20.2c1.2,0.7,3.4,0.6,4.8-0.2L96.7,67.6z"/>
	<g>
		<g>
			<g>
				<g>
					
						<linearGradient id="SVGID_10_" gradientUnits="userSpaceOnUse" x1="-342.9721" y1="1100.1069" x2="-306.2615" y2="1100.1069" gradientTransform="matrix(0.4991 0.8665 0.8665 -0.4991 -729.242 894.5885)">
						<stop  offset="0" style="stop-color:#BCBEFF"/>
						<stop  offset="0.1659" style="stop-color:#B6B8FC"/>
						<stop  offset="0.3956" style="stop-color:#A4A8F5"/>
						<stop  offset="0.6625" style="stop-color:#868DEA"/>
						<stop  offset="0.9554" style="stop-color:#5E67DA"/>
						<stop  offset="1" style="stop-color:#5761D7"/>
					</linearGradient>
					<path class="st16" d="M61.7,85.2l36.1-20.8c0.8-0.5,1.2-1,1.2-1.6l0,0l0-6.5l-1.2,1.1l-1.1-0.6c0.1-0.1,0.2-0.3,0.2-0.3
						c-0.1-0.1-0.5-0.9-0.5-0.9l-25.5-15l-8.1-4.7l-3.2-0.9L22.6,56.2l0.1,0.9l-1,0.6l-1.6-0.7l0,6.5l0,0c0,0.5,0.3,0.9,0.8,1.2
						l35.9,20.7C58.1,86.1,60.3,86,61.7,85.2z M76.4,69.1L60,78L58.6,78L31.3,62.7l-7.6-3.9l35.6-20.5c0.3-0.2,0.8-0.2,1.1,0
						l34.7,20L76.4,69.1z"/>
					
						<linearGradient id="SVGID_11_" gradientUnits="userSpaceOnUse" x1="-342.9721" y1="1100.1069" x2="-306.2615" y2="1100.1069" gradientTransform="matrix(0.4991 0.8665 0.8665 -0.4991 -729.242 894.5885)">
						<stop  offset="0" style="stop-color:#706EC4"/>
						<stop  offset="2.222079e-02" style="stop-color:#6D6BC2"/>
						<stop  offset="0.2509" style="stop-color:#5651AC"/>
						<stop  offset="0.4865" style="stop-color:#463F9D"/>
						<stop  offset="0.7314" style="stop-color:#3C3494"/>
						<stop  offset="1" style="stop-color:#393091"/>
					</linearGradient>
					<path class="st17" d="M61.7,85.2l36.1-20.8c0.8-0.5,1.2-1,1.2-1.6l0,0l0-6.5l-1.2,1.1l-1.1-0.6c0.1-0.1,0.2-0.3,0.2-0.3
						c-0.1-0.1-0.5-0.9-0.5-0.9l-25.5-15l-8.1-4.7l-3.2-0.9L22.6,56.2l0.1,0.9l-1,0.6l-1.6-0.7l0,6.5l0,0c0,0.5,0.3,0.9,0.8,1.2
						l35.9,20.7C58.1,86.1,60.3,86,61.7,85.2z M76.4,69.1L60,78L58.6,78L31.3,62.7l-7.6-3.9l35.6-20.5c0.3-0.2,0.8-0.2,1.1,0
						l34.7,20L76.4,69.1z"/>
					<path class="st18" d="M59.1,85.9l0-7.9l0.9,0l16.3-8.9l18.8-10.9l-0.6-0.4c0.6-0.3,3.9-1.3,4.5-1.6l0,6l0,0.5l0,0
						c0,0.6-0.4,1.1-1.2,1.6L61.7,85.2C61,85.6,60,85.8,59.1,85.9z"/>
					
						<linearGradient id="SVGID_12_" gradientUnits="userSpaceOnUse" x1="-352.7395" y1="1101.8442" x2="-312.3225" y2="1101.8442" gradientTransform="matrix(0.4991 0.8665 0.8665 -0.4991 -729.242 894.5885)">
						<stop  offset="0" style="stop-color:#BCBEFF"/>
						<stop  offset="0.1659" style="stop-color:#B6B8FC"/>
						<stop  offset="0.3956" style="stop-color:#A4A8F5"/>
						<stop  offset="0.6625" style="stop-color:#868DEA"/>
						<stop  offset="0.9554" style="stop-color:#5E67DA"/>
						<stop  offset="1" style="stop-color:#5761D7"/>
					</linearGradient>
					<path class="st19" d="M61.7,78.6l36.1-20.8c1.4-0.8,1.6-2.1,0.4-2.8L62.2,34.3c-1.2-0.7-3.4-0.6-4.8,0.2L21.3,55.2
						c-1.4,0.8-1.6,2.1-0.4,2.8l35.9,20.7C58.1,79.5,60.3,79.4,61.7,78.6z M59.7,77.4c-0.3,0.2-0.8,0.2-1.1,0L23.3,57
						c-0.3-0.2-0.2-0.4,0.1-0.6l36-20.7c0.3-0.2,0.8-0.2,1.1,0L95.8,56c0.3,0.2,0.2,0.4-0.1,0.6L59.7,77.4z"/>
					
						<linearGradient id="SVGID_13_" gradientUnits="userSpaceOnUse" x1="-358.3217" y1="1101.8442" x2="-285.403" y2="1101.8442" gradientTransform="matrix(0.4991 0.8665 0.8665 -0.4991 -729.242 894.5885)">
						<stop  offset="0" style="stop-color:#706EC4"/>
						<stop  offset="2.222079e-02" style="stop-color:#6D6BC2"/>
						<stop  offset="0.2509" style="stop-color:#5651AC"/>
						<stop  offset="0.4865" style="stop-color:#463F9D"/>
						<stop  offset="0.7314" style="stop-color:#3C3494"/>
						<stop  offset="1" style="stop-color:#393091"/>
					</linearGradient>
					<path class="st20" d="M61.7,78.6l36.1-20.8c1.4-0.8,1.6-2.1,0.4-2.8L62.2,34.3c-1.2-0.7-3.4-0.6-4.8,0.2L21.3,55.2
						c-1.4,0.8-1.6,2.1-0.4,2.8l35.9,20.7C58.1,79.5,60.3,79.4,61.7,78.6z M59.7,77.4c-0.3,0.2-0.8,0.2-1.1,0L23.3,57
						c-0.3-0.2-0.2-0.4,0.1-0.6l36-20.7c0.3-0.2,0.8-0.2,1.1,0L95.8,56c0.3,0.2,0.2,0.4-0.1,0.6L59.7,77.4z"/>
					<g>
						<path class="st0" d="M95.8,55.6L60.5,35.3c-0.3-0.2-0.8-0.1-1.1,0L23.4,56c-0.3,0.2-0.3,0.4-0.2,0.5c0-0.1,0.1-0.1,0.2-0.2
							l36-20.7c0.3-0.2,0.8-0.2,1.1,0L95.8,56c0.1,0,0.1,0.1,0.1,0.1C96,55.9,96,55.8,95.8,55.6z"/>
						<path class="st0" d="M97.8,57.4L61.7,78.2c-1.4,0.8-3.6,0.9-4.8,0.2L20.9,57.7c-0.5-0.3-0.8-0.7-0.8-1c-0.1,0.5,0.2,1,0.8,1.4
							l35.9,20.7c1.2,0.7,3.4,0.6,4.8-0.2l36.1-20.8c0.9-0.5,1.3-1.2,1.2-1.8C98.9,56.5,98.5,57,97.8,57.4z"/>
					</g>
					<path class="st21" d="M60.5,38.2c-0.3-0.2-0.8-0.1-1.1,0L25,58l-1.7-1c-0.3-0.2-0.2-0.4,0.1-0.6l36-20.7c0.3-0.2,0.8-0.2,1.1,0
						L95.8,56c0.3,0.2,0.2,0.4-0.1,0.6l-1.7,1L60.5,38.2z"/>
					<path class="st15" d="M95.7,56.6c0.3-0.2,0.4-0.5,0.1-0.6L60.5,35.6c-0.3-0.2-0.8-0.1-1.1,0l-36,20.7C23,56.6,23,56.9,23.3,57
						l35.3,20.4c0.3,0.2,0.8,0.1,1.1,0L95.7,56.6z"/>
				</g>
			</g>
			<g>
				<g>
					
						<linearGradient id="SVGID_14_" gradientUnits="userSpaceOnUse" x1="-352.7265" y1="1105.7255" x2="-316.0159" y2="1105.7255" gradientTransform="matrix(0.4991 0.8665 0.8665 -0.4991 -729.242 894.5885)">
						<stop  offset="0" style="stop-color:#BCBEFF"/>
						<stop  offset="0.1659" style="stop-color:#B6B8FC"/>
						<stop  offset="0.3956" style="stop-color:#A4A8F5"/>
						<stop  offset="0.6625" style="stop-color:#868DEA"/>
						<stop  offset="0.9554" style="stop-color:#5E67DA"/>
						<stop  offset="1" style="stop-color:#5761D7"/>
					</linearGradient>
					<path class="st22" d="M61.7,73.9l36.1-20.8c0.8-0.5,1.2-1,1.2-1.6l0,0l0-6.5l-1.2,1.1l-1.1-0.6c0.1-0.1,0.2-0.3,0.2-0.3
						c-0.1-0.1-0.5-0.9-0.5-0.9l-25.5-15l-8.1-4.7l-3.2-0.9L22.6,44.9l0.1,0.9l-1,0.6l-1.6-0.7l0,6.5l0,0c0,0.5,0.3,0.9,0.8,1.2
						l35.9,20.7C58.1,74.8,60.3,74.7,61.7,73.9z M76.4,57.9L60,66.8l-1.4-0.1L31.3,51.4l-7.6-3.9L59.4,27c0.3-0.2,0.8-0.2,1.1,0
						l34.7,20L76.4,57.9z"/>
					
						<linearGradient id="SVGID_15_" gradientUnits="userSpaceOnUse" x1="-352.7265" y1="1105.7255" x2="-316.0159" y2="1105.7255" gradientTransform="matrix(0.4991 0.8665 0.8665 -0.4991 -729.242 894.5885)">
						<stop  offset="0" style="stop-color:#706EC4"/>
						<stop  offset="2.222079e-02" style="stop-color:#6D6BC2"/>
						<stop  offset="0.2509" style="stop-color:#5651AC"/>
						<stop  offset="0.4865" style="stop-color:#463F9D"/>
						<stop  offset="0.7314" style="stop-color:#3C3494"/>
						<stop  offset="1" style="stop-color:#393091"/>
					</linearGradient>
					<path class="st23" d="M61.7,73.9l36.1-20.8c0.8-0.5,1.2-1,1.2-1.6l0,0l0-6.5l-1.2,1.1l-1.1-0.6c0.1-0.1,0.2-0.3,0.2-0.3
						c-0.1-0.1-0.5-0.9-0.5-0.9l-25.5-15l-8.1-4.7l-3.2-0.9L22.6,44.9l0.1,0.9l-1,0.6l-1.6-0.7l0,6.5l0,0c0,0.5,0.3,0.9,0.8,1.2
						l35.9,20.7C58.1,74.8,60.3,74.7,61.7,73.9z M76.4,57.9L60,66.8l-1.4-0.1L31.3,51.4l-7.6-3.9L59.4,27c0.3-0.2,0.8-0.2,1.1,0
						l34.7,20L76.4,57.9z"/>
					<path class="st18" d="M59.1,74.6l0-7.9l0.9,0l16.3-8.9L95.1,47l-0.6-0.4c0.6-0.3,3.9-1.3,4.5-1.6l0,6l0,0.5l0,0
						c0,0.6-0.4,1.1-1.2,1.6L61.7,73.9C61,74.4,60,74.6,59.1,74.6z"/>
					
						<linearGradient id="SVGID_16_" gradientUnits="userSpaceOnUse" x1="-362.4939" y1="1107.4628" x2="-322.0769" y2="1107.4628" gradientTransform="matrix(0.4991 0.8665 0.8665 -0.4991 -729.242 894.5885)">
						<stop  offset="0" style="stop-color:#BCBEFF"/>
						<stop  offset="0.1659" style="stop-color:#B6B8FC"/>
						<stop  offset="0.3956" style="stop-color:#A4A8F5"/>
						<stop  offset="0.6625" style="stop-color:#868DEA"/>
						<stop  offset="0.9554" style="stop-color:#5E67DA"/>
						<stop  offset="1" style="stop-color:#5761D7"/>
					</linearGradient>
					<path class="st24" d="M61.7,67.3l36.1-20.8c1.4-0.8,1.6-2.1,0.4-2.8L62.2,23c-1.2-0.7-3.4-0.6-4.8,0.2L21.3,44
						c-1.4,0.8-1.6,2.1-0.4,2.8l35.9,20.7C58.1,68.2,60.3,68.2,61.7,67.3z M59.7,66.1c-0.3,0.2-0.8,0.2-1.1,0L23.3,45.8
						c-0.3-0.2-0.2-0.4,0.1-0.6l36-20.7c0.3-0.2,0.8-0.2,1.1,0l35.3,20.4c0.3,0.2,0.2,0.4-0.1,0.6L59.7,66.1z"/>
					
						<linearGradient id="SVGID_17_" gradientUnits="userSpaceOnUse" x1="-368.0761" y1="1107.4628" x2="-295.1574" y2="1107.4628" gradientTransform="matrix(0.4991 0.8665 0.8665 -0.4991 -729.242 894.5885)">
						<stop  offset="0" style="stop-color:#706EC4"/>
						<stop  offset="2.222079e-02" style="stop-color:#6D6BC2"/>
						<stop  offset="0.2509" style="stop-color:#5651AC"/>
						<stop  offset="0.4865" style="stop-color:#463F9D"/>
						<stop  offset="0.7314" style="stop-color:#3C3494"/>
						<stop  offset="1" style="stop-color:#393091"/>
					</linearGradient>
					<path class="st25" d="M61.7,67.3l36.1-20.8c1.4-0.8,1.6-2.1,0.4-2.8L62.2,23c-1.2-0.7-3.4-0.6-4.8,0.2L21.3,44
						c-1.4,0.8-1.6,2.1-0.4,2.8l35.9,20.7C58.1,68.2,60.3,68.2,61.7,67.3z M59.7,66.1c-0.3,0.2-0.8,0.2-1.1,0L23.3,45.8
						c-0.3-0.2-0.2-0.4,0.1-0.6l36-20.7c0.3-0.2,0.8-0.2,1.1,0l35.3,20.4c0.3,0.2,0.2,0.4-0.1,0.6L59.7,66.1z"/>
					<g>
						<path class="st0" d="M95.8,44.4L60.5,24c-0.3-0.2-0.8-0.1-1.1,0l-36,20.7c-0.3,0.2-0.3,0.4-0.2,0.5c0-0.1,0.1-0.1,0.2-0.2
							l36-20.7c0.3-0.2,0.8-0.2,1.1,0l35.3,20.4c0.1,0,0.1,0.1,0.1,0.1C96,44.7,96,44.5,95.8,44.4z"/>
						<path class="st0" d="M97.8,46.2L61.7,67c-1.4,0.8-3.6,0.9-4.8,0.2L20.9,46.4c-0.5-0.3-0.8-0.7-0.8-1c-0.1,0.5,0.2,1,0.8,1.4
							l35.9,20.7c1.2,0.7,3.4,0.6,4.8-0.2l36.1-20.8c0.9-0.5,1.3-1.2,1.2-1.8C98.9,45.3,98.5,45.8,97.8,46.2z"/>
					</g>
					<path class="st21" d="M60.5,27c-0.3-0.2-0.8-0.1-1.1,0L25,46.8l-1.7-1c-0.3-0.2-0.2-0.4,0.1-0.6l36-20.7c0.3-0.2,0.8-0.2,1.1,0
						l35.3,20.4c0.3,0.2,0.2,0.4-0.1,0.6l-1.7,1L60.5,27z"/>
					<path class="st15" d="M95.7,45.4c0.3-0.2,0.4-0.5,0.1-0.6L60.5,24.4c-0.3-0.2-0.8-0.1-1.1,0l-36,20.7c-0.3,0.2-0.4,0.5-0.1,0.6
						l35.3,20.4c0.3,0.2,0.8,0.1,1.1,0L95.7,45.4z"/>
				</g>
			</g>
			<g>
				<g>
					
						<linearGradient id="SVGID_18_" gradientUnits="userSpaceOnUse" x1="-362.481" y1="1111.344" x2="-325.7704" y2="1111.344" gradientTransform="matrix(0.4991 0.8665 0.8665 -0.4991 -729.242 894.5885)">
						<stop  offset="0" style="stop-color:#BCBEFF"/>
						<stop  offset="0.1659" style="stop-color:#B6B8FC"/>
						<stop  offset="0.3956" style="stop-color:#A4A8F5"/>
						<stop  offset="0.6625" style="stop-color:#868DEA"/>
						<stop  offset="0.9554" style="stop-color:#5E67DA"/>
						<stop  offset="1" style="stop-color:#5761D7"/>
					</linearGradient>
					<path class="st26" d="M61.7,62.7l36.1-20.8c0.8-0.5,1.2-1,1.2-1.6l0,0l0-6.5l-1.2,1.1l-1.1-0.6c0.1-0.1,0.2-0.3,0.2-0.3
						c-0.1-0.1-0.5-0.9-0.5-0.9L70.9,18l-8.1-4.7l-3.2-0.9L22.6,33.7l0.1,0.9l-1,0.6l-1.6-0.7l0,6.5l0,0c0,0.5,0.3,0.9,0.8,1.2
						l35.9,20.7C58.1,63.6,60.3,63.5,61.7,62.7z M76.4,46.6L60,55.5l-1.4-0.1L31.3,40.2l-7.6-3.9l35.6-20.5c0.3-0.2,0.8-0.2,1.1,0
						l34.7,20L76.4,46.6z"/>
					
						<linearGradient id="SVGID_19_" gradientUnits="userSpaceOnUse" x1="-362.481" y1="1111.344" x2="-325.7704" y2="1111.344" gradientTransform="matrix(0.4991 0.8665 0.8665 -0.4991 -729.242 894.5885)">
						<stop  offset="0" style="stop-color:#706EC4"/>
						<stop  offset="2.222079e-02" style="stop-color:#6D6BC2"/>
						<stop  offset="0.2509" style="stop-color:#5651AC"/>
						<stop  offset="0.4865" style="stop-color:#463F9D"/>
						<stop  offset="0.7314" style="stop-color:#3C3494"/>
						<stop  offset="1" style="stop-color:#393091"/>
					</linearGradient>
					<path class="st27" d="M61.7,62.7l36.1-20.8c0.8-0.5,1.2-1,1.2-1.6l0,0l0-6.5l-1.2,1.1l-1.1-0.6c0.1-0.1,0.2-0.3,0.2-0.3
						c-0.1-0.1-0.5-0.9-0.5-0.9L70.9,18l-8.1-4.7l-3.2-0.9L22.6,33.7l0.1,0.9l-1,0.6l-1.6-0.7l0,6.5l0,0c0,0.5,0.3,0.9,0.8,1.2
						l35.9,20.7C58.1,63.6,60.3,63.5,61.7,62.7z M76.4,46.6L60,55.5l-1.4-0.1L31.3,40.2l-7.6-3.9l35.6-20.5c0.3-0.2,0.8-0.2,1.1,0
						l34.7,20L76.4,46.6z"/>
					<path class="st18" d="M59.1,63.3l0-7.9l0.9,0l16.3-8.9l18.8-10.9l-0.6-0.4c0.6-0.3,3.9-1.3,4.5-1.6l0,6l0,0.5l0,0
						c0,0.6-0.4,1.1-1.2,1.6L61.7,62.7C61,63.1,60,63.3,59.1,63.3z"/>
					
						<linearGradient id="SVGID_20_" gradientUnits="userSpaceOnUse" x1="-372.2483" y1="1113.0813" x2="-331.8314" y2="1113.0813" gradientTransform="matrix(0.4991 0.8665 0.8665 -0.4991 -729.242 894.5885)">
						<stop  offset="0" style="stop-color:#BCBEFF"/>
						<stop  offset="0.1659" style="stop-color:#B6B8FC"/>
						<stop  offset="0.3956" style="stop-color:#A4A8F5"/>
						<stop  offset="0.6625" style="stop-color:#868DEA"/>
						<stop  offset="0.9554" style="stop-color:#5E67DA"/>
						<stop  offset="1" style="stop-color:#5761D7"/>
					</linearGradient>
					<path class="st28" d="M61.7,56.1l36.1-20.8c1.4-0.8,1.6-2.1,0.4-2.8L62.2,11.7c-1.2-0.7-3.4-0.6-4.8,0.2L21.3,32.7
						c-1.4,0.8-1.6,2.1-0.4,2.8l35.9,20.7C58.1,57,60.3,56.9,61.7,56.1z M59.7,54.9c-0.3,0.2-0.8,0.2-1.1,0L23.3,34.5
						c-0.3-0.2-0.2-0.4,0.1-0.6l36-20.7c0.3-0.2,0.8-0.2,1.1,0l35.3,20.4c0.3,0.2,0.2,0.4-0.1,0.6L59.7,54.9z"/>
					
						<linearGradient id="SVGID_21_" gradientUnits="userSpaceOnUse" x1="-377.8305" y1="1113.0813" x2="-304.912" y2="1113.0813" gradientTransform="matrix(0.4991 0.8665 0.8665 -0.4991 -729.242 894.5885)">
						<stop  offset="0" style="stop-color:#706EC4"/>
						<stop  offset="2.222079e-02" style="stop-color:#6D6BC2"/>
						<stop  offset="0.2509" style="stop-color:#5651AC"/>
						<stop  offset="0.4865" style="stop-color:#463F9D"/>
						<stop  offset="0.7314" style="stop-color:#3C3494"/>
						<stop  offset="1" style="stop-color:#393091"/>
					</linearGradient>
					<path class="st29" d="M61.7,56.1l36.1-20.8c1.4-0.8,1.6-2.1,0.4-2.8L62.2,11.7c-1.2-0.7-3.4-0.6-4.8,0.2L21.3,32.7
						c-1.4,0.8-1.6,2.1-0.4,2.8l35.9,20.7C58.1,57,60.3,56.9,61.7,56.1z M59.7,54.9c-0.3,0.2-0.8,0.2-1.1,0L23.3,34.5
						c-0.3-0.2-0.2-0.4,0.1-0.6l36-20.7c0.3-0.2,0.8-0.2,1.1,0l35.3,20.4c0.3,0.2,0.2,0.4-0.1,0.6L59.7,54.9z"/>
					<g>
						<path class="st0" d="M95.8,33.1L60.5,12.8c-0.3-0.2-0.8-0.1-1.1,0l-36,20.7c-0.3,0.2-0.3,0.4-0.2,0.5c0-0.1,0.1-0.1,0.2-0.2
							l36-20.7c0.3-0.2,0.8-0.2,1.1,0l35.3,20.4c0.1,0,0.1,0.1,0.1,0.1C96,33.4,96,33.3,95.8,33.1z"/>
						<path class="st0" d="M97.8,34.9L61.7,55.7c-1.4,0.8-3.6,0.9-4.8,0.2L20.9,35.2c-0.5-0.3-0.8-0.7-0.8-1c-0.1,0.5,0.2,1,0.8,1.4
							l35.9,20.7c1.2,0.7,3.4,0.6,4.8-0.2l36.1-20.8c0.9-0.5,1.3-1.2,1.2-1.8C98.9,34,98.5,34.5,97.8,34.9z"/>
					</g>
					<path class="st21" d="M60.5,15.7c-0.3-0.2-0.8-0.1-1.1,0L25,35.5l-1.7-1c-0.3-0.2-0.2-0.4,0.1-0.6l36-20.7
						c0.3-0.2,0.8-0.2,1.1,0l35.3,20.4c0.3,0.2,0.2,0.4-0.1,0.6l-1.7,1L60.5,15.7z"/>
					<path class="st15" d="M95.7,34.1c0.3-0.2,0.4-0.5,0.1-0.6L60.5,13.1c-0.3-0.2-0.8-0.1-1.1,0l-36,20.7c-0.3,0.2-0.4,0.5-0.1,0.6
						l35.3,20.4c0.3,0.2,0.8,0.1,1.1,0L95.7,34.1z"/>
				</g>
			</g>
			<g>
				<g>
					
						<linearGradient id="SVGID_22_" gradientUnits="userSpaceOnUse" x1="-372.2354" y1="1116.9625" x2="-335.5248" y2="1116.9625" gradientTransform="matrix(0.4991 0.8665 0.8665 -0.4991 -729.242 894.5885)">
						<stop  offset="0" style="stop-color:#BCBEFF"/>
						<stop  offset="0.1659" style="stop-color:#B6B8FC"/>
						<stop  offset="0.3956" style="stop-color:#A4A8F5"/>
						<stop  offset="0.6625" style="stop-color:#868DEA"/>
						<stop  offset="0.9554" style="stop-color:#5E67DA"/>
						<stop  offset="1" style="stop-color:#5761D7"/>
					</linearGradient>
					<path class="st30" d="M61.7,51.4l36.1-20.8c0.8-0.5,1.2-1,1.2-1.6l0,0l0-6.5l-1.2,1.1L96.7,23c0.1-0.1,0.2-0.3,0.2-0.3
						c-0.1-0.1-0.5-0.9-0.5-0.9l-25.5-15L62.8,2l-3.2-0.9L22.6,22.4l0.1,0.9l-1,0.6l-1.6-0.7l0,6.5l0,0c0,0.5,0.3,0.9,0.8,1.2
						l35.9,20.7C58.1,52.3,60.3,52.2,61.7,51.4z M76.4,35.4L60,44.3l-1.4-0.1L31.3,28.9L23.7,25L59.4,4.5c0.3-0.2,0.8-0.2,1.1,0
						l34.7,20L76.4,35.4z"/>
					
						<linearGradient id="SVGID_23_" gradientUnits="userSpaceOnUse" x1="-372.2354" y1="1116.9625" x2="-335.5248" y2="1116.9625" gradientTransform="matrix(0.4991 0.8665 0.8665 -0.4991 -729.242 894.5885)">
						<stop  offset="0" style="stop-color:#706EC4"/>
						<stop  offset="2.222079e-02" style="stop-color:#6D6BC2"/>
						<stop  offset="0.2509" style="stop-color:#5651AC"/>
						<stop  offset="0.4865" style="stop-color:#463F9D"/>
						<stop  offset="0.7314" style="stop-color:#3C3494"/>
						<stop  offset="1" style="stop-color:#393091"/>
					</linearGradient>
					<path class="st31" d="M61.7,51.4l36.1-20.8c0.8-0.5,1.2-1,1.2-1.6l0,0l0-6.5l-1.2,1.1L96.7,23c0.1-0.1,0.2-0.3,0.2-0.3
						c-0.1-0.1-0.5-0.9-0.5-0.9l-25.5-15L62.8,2l-3.2-0.9L22.6,22.4l0.1,0.9l-1,0.6l-1.6-0.7l0,6.5l0,0c0,0.5,0.3,0.9,0.8,1.2
						l35.9,20.7C58.1,52.3,60.3,52.2,61.7,51.4z M76.4,35.4L60,44.3l-1.4-0.1L31.3,28.9L23.7,25L59.4,4.5c0.3-0.2,0.8-0.2,1.1,0
						l34.7,20L76.4,35.4z"/>
					<path class="st18" d="M59.1,52.1l0-7.9l0.9,0l16.3-8.9l18.8-10.9l-0.6-0.4c0.6-0.3,3.9-1.3,4.5-1.6l0,6l0,0.5l0,0
						c0,0.6-0.4,1.1-1.2,1.6L61.7,51.4C61,51.8,60,52.1,59.1,52.1z"/>
					
						<linearGradient id="SVGID_24_" gradientUnits="userSpaceOnUse" x1="-382.0027" y1="1118.6998" x2="-341.5858" y2="1118.6998" gradientTransform="matrix(0.4991 0.8665 0.8665 -0.4991 -729.242 894.5885)">
						<stop  offset="0" style="stop-color:#BCBEFF"/>
						<stop  offset="0.1659" style="stop-color:#B6B8FC"/>
						<stop  offset="0.3956" style="stop-color:#A4A8F5"/>
						<stop  offset="0.6625" style="stop-color:#868DEA"/>
						<stop  offset="0.9554" style="stop-color:#5E67DA"/>
						<stop  offset="1" style="stop-color:#5761D7"/>
					</linearGradient>
					<path class="st32" d="M61.7,44.8L97.8,24c1.4-0.8,1.6-2.1,0.4-2.8L62.2,0.5c-1.2-0.7-3.4-0.6-4.8,0.2L21.3,21.5
						c-1.4,0.8-1.6,2.1-0.4,2.8L56.9,45C58.1,45.7,60.3,45.6,61.7,44.8z M59.7,43.6c-0.3,0.2-0.8,0.2-1.1,0L23.3,23.3
						c-0.3-0.2-0.2-0.4,0.1-0.6l36-20.7c0.3-0.2,0.8-0.2,1.1,0l35.3,20.4c0.3,0.2,0.2,0.4-0.1,0.6L59.7,43.6z"/>
					
						<linearGradient id="SVGID_25_" gradientUnits="userSpaceOnUse" x1="-387.5849" y1="1118.6998" x2="-314.6664" y2="1118.6998" gradientTransform="matrix(0.4991 0.8665 0.8665 -0.4991 -729.242 894.5885)">
						<stop  offset="0" style="stop-color:#706EC4"/>
						<stop  offset="2.222079e-02" style="stop-color:#6D6BC2"/>
						<stop  offset="0.2509" style="stop-color:#5651AC"/>
						<stop  offset="0.4865" style="stop-color:#463F9D"/>
						<stop  offset="0.7314" style="stop-color:#3C3494"/>
						<stop  offset="1" style="stop-color:#393091"/>
					</linearGradient>
					<path class="st33" d="M61.7,44.8L97.8,24c1.4-0.8,1.6-2.1,0.4-2.8L62.2,0.5c-1.2-0.7-3.4-0.6-4.8,0.2L21.3,21.5
						c-1.4,0.8-1.6,2.1-0.4,2.8L56.9,45C58.1,45.7,60.3,45.6,61.7,44.8z M59.7,43.6c-0.3,0.2-0.8,0.2-1.1,0L23.3,23.3
						c-0.3-0.2-0.2-0.4,0.1-0.6l36-20.7c0.3-0.2,0.8-0.2,1.1,0l35.3,20.4c0.3,0.2,0.2,0.4-0.1,0.6L59.7,43.6z"/>
					<g>
						<path class="st0" d="M95.8,21.9L60.5,1.5c-0.3-0.2-0.8-0.1-1.1,0l-36,20.7c-0.3,0.2-0.3,0.4-0.2,0.5c0-0.1,0.1-0.1,0.2-0.2
							l36-20.7c0.3-0.2,0.8-0.2,1.1,0l35.3,20.4c0.1,0,0.1,0.1,0.1,0.1C96,22.2,96,22,95.8,21.9z"/>
						<path class="st0" d="M97.8,23.7L61.7,44.5c-1.4,0.8-3.6,0.9-4.8,0.2L20.9,23.9c-0.5-0.3-0.8-0.7-0.8-1c-0.1,0.5,0.2,1,0.8,1.4
							L56.9,45c1.2,0.7,3.4,0.6,4.8-0.2L97.8,24c0.9-0.5,1.3-1.2,1.2-1.8C98.9,22.8,98.5,23.3,97.8,23.7z"/>
					</g>
					<path class="st21" d="M60.5,4.5c-0.3-0.2-0.8-0.1-1.1,0L25,24.3l-1.7-1c-0.3-0.2-0.2-0.4,0.1-0.6l36-20.7
						c0.3-0.2,0.8-0.2,1.1,0l35.3,20.4c0.3,0.2,0.2,0.4-0.1,0.6l-1.7,1L60.5,4.5z"/>
					<path class="st15" d="M95.7,22.9c0.3-0.2,0.4-0.5,0.1-0.6L60.5,1.9c-0.3-0.2-0.8-0.1-1.1,0l-36,20.7c-0.3,0.2-0.4,0.5-0.1,0.6
						l35.3,20.4c0.3,0.2,0.8,0.1,1.1,0L95.7,22.9z"/>
				</g>
			</g>
		</g>
		<g>
			<path class="st0" d="M91.1,31.4c0,0.4-0.3,0.8-0.6,1c-0.3,0.2-0.6,0-0.6-0.3s0.3-0.8,0.6-1C90.8,30.8,91.1,31,91.1,31.4z"/>
			<path class="st0" d="M93.1,30.2c0,0.4-0.3,0.8-0.6,1c-0.3,0.2-0.6,0-0.6-0.3s0.3-0.8,0.6-1C92.9,29.7,93.1,29.8,93.1,30.2z"/>
			<path class="st0" d="M95.2,29c0,0.4-0.3,0.8-0.6,1c-0.3,0.2-0.6,0-0.6-0.3c0-0.4,0.3-0.8,0.6-1C94.9,28.5,95.2,28.6,95.2,29z"/>
		</g>
		<g>
			<path class="st0" d="M91.1,42.9c0,0.4-0.3,0.8-0.6,1c-0.3,0.2-0.6,0-0.6-0.3c0-0.4,0.3-0.8,0.6-1C90.8,42.3,91.1,42.5,91.1,42.9z
				"/>
			<path class="st0" d="M93.1,41.7c0,0.4-0.3,0.8-0.6,1c-0.3,0.2-0.6,0-0.6-0.3c0-0.4,0.3-0.8,0.6-1C92.9,41.2,93.1,41.3,93.1,41.7z
				"/>
			<path class="st0" d="M95.2,40.5c0,0.4-0.3,0.8-0.6,1c-0.3,0.2-0.6,0-0.6-0.3c0-0.4,0.3-0.8,0.6-1C94.9,40,95.2,40.1,95.2,40.5z"
				/>
		</g>
		<g>
			<path class="st34" d="M91.1,65c0,0.4-0.3,0.8-0.6,1c-0.3,0.2-0.6,0-0.6-0.3c0-0.4,0.3-0.8,0.6-1C90.8,64.5,91.1,64.7,91.1,65z"/>
			<path class="st34" d="M93.1,63.9c0,0.4-0.3,0.8-0.6,1c-0.3,0.2-0.6,0-0.6-0.3c0-0.4,0.3-0.8,0.6-1C92.9,63.3,93.1,63.5,93.1,63.9
				z"/>
			<path class="st34" d="M95.2,62.7c0,0.4-0.3,0.8-0.6,1c-0.3,0.2-0.6,0-0.6-0.3c0-0.4,0.3-0.8,0.6-1C94.9,62.1,95.2,62.3,95.2,62.7
				z"/>
		</g>
	</g>
</g>
</svg>
